<svg xmlns="http://www.w3.org/2000/svg" viewBox="0 0 2048 1489">
  <!--
    Dark-mode-aware favicon. Light mode (default): cream square with the
    wine LA monogram. Dark mode (iOS Safari / Chrome tab bar / pinned tab
    on dark themes): the background swaps to deep ink and the monogram
    switches to cream so the mark stays legible against the dark chrome
    instead of standing out as a bright cream box.
  -->
  <style>
    .bg  { fill: #F7F5EE; }
    .ink { fill: #521F28; }
    @media (prefers-color-scheme: dark) {
      .bg  { fill: #1F1A14; }
      .ink { fill: #F6F0E5; }
    }
  </style>
  <path class="bg"  d="M 0 0 L 2048 0 L 2048 1489 L 0 1489 L 0 0 z"/>
  <path class="ink" d="M 125.865 100.299 C 136.711 99.0006 161.696 99.6366 173.653 99.6412 L 263.02 99.6976 L 425.578 99.6496 C 441.971 99.6435 517.812 98.2171 526.025 101.733 C 532.434 104.457 537.525 109.578 540.212 116.003 C 543.957 125.207 541.928 279.932 541.927 304.585 L 541.925 754.503 L 541.955 1160.93 C 541.956 1226.72 542.025 1292.51 542.031 1358.3 C 542.032 1375.22 537.354 1382.57 521.865 1388.8 C 506.918 1389.94 484.159 1389.26 468.809 1389.26 L 370.342 1389.22 L 216.004 1389.23 C 203.994 1389.23 131.941 1390.64 124.013 1387.71 C 117.544 1385.29 112.283 1380.43 109.363 1374.17 C 106.954 1369.01 106.279 1363.33 106.259 1357.71 C 106.076 1306.87 106.168 1255.9 106.163 1205.07 L 106.143 903.018 L 106.167 368.008 L 106.144 212.189 C 106.129 188.917 106.024 165.606 106.144 142.338 C 106.248 121.898 105.114 109.644 125.865 100.299 z"/>
  <path class="ink" d="M 1357.57 79.7513 C 1360.65 82.7904 1380.13 123.648 1383.02 129.462 L 1466.3 298.271 L 1860.95 1096.61 L 1962.9 1302.75 C 1974.71 1326.95 1995.05 1364.09 2004.59 1387.86 C 1933.23 1388.85 1861.86 1389.1 1790.5 1388.6 C 1722.78 1388.12 1654.69 1390.6 1586.92 1388.97 C 1571.55 1388.6 1564.6 1384.57 1557.82 1370.86 C 1520.86 1296.22 1484.23 1221.42 1447.38 1146.72 L 1251.15 749.772 L 1176.36 598.884 C 1165.96 577.936 1152.39 553.513 1144.41 531.759 C 1142.01 525.216 1143.37 512.098 1146.23 505.58 C 1154.6 486.495 1164.86 467.049 1174.2 448.304 L 1228.52 338.644 L 1309.01 175.295 C 1324.56 143.859 1339.98 109.824 1357.57 79.7513 z"/>
  <path class="ink" d="M 790.763 1042.22 C 809.95 1041.35 832.15 1041.87 851.523 1041.87 L 958.019 1041.93 L 1042.14 1041.82 C 1057.53 1041.79 1072.8 1041.78 1088.17 1042.1 C 1102.19 1041.59 1118.4 1051.26 1121.1 1065.84 C 1124.19 1082.56 1123.03 1102.93 1123.01 1120.21 L 1122.9 1203 L 1122.99 1302.26 C 1123.01 1319.55 1123.23 1336.83 1122.78 1354.11 C 1122.27 1373.51 1112.59 1384.73 1093.92 1389.04 C 1073.82 1389.73 1050.93 1389.21 1030.5 1389.2 L 913.515 1389.18 L 838.848 1389.22 C 787.625 1389.46 756.813 1397.13 760.463 1333.7 C 760.751 1328.68 760.469 1322.01 760.475 1316.83 L 760.589 1243.24 L 760.484 1133.75 C 760.473 1114.77 760.106 1095.67 760.854 1076.71 C 761.636 1056.92 771.935 1045.96 790.763 1042.22 z"/>
</svg>
